<?xml version="1.0" standalone="no"?>
<!DOCTYPE svg PUBLIC "-//W3C//DTD SVG 20010904//EN"
 "http://www.w3.org/TR/2001/REC-SVG-20010904/DTD/svg10.dtd">
<svg version="1.0" xmlns="http://www.w3.org/2000/svg"
 width="1200.000000pt" height="1200.000000pt" viewBox="0 0 1200.000000 1200.000000"
 preserveAspectRatio="xMidYMid meet">

<g transform="translate(0.000000,1200.000000) scale(0.100000,-0.100000)"
fill="#000000" stroke="none">
<path d="M5760 11274 c-731 -50 -1315 -202 -1935 -505 -1789 -873 -2905 -2758
-2796 -4724 41 -747 205 -1373 526 -2015 638 -1277 1809 -2230 3189 -2595 282
-74 633 -133 921 -155 179 -13 541 -13 715 0 872 65 1705 351 2430 833 731
487 1342 1189 1725 1982 405 838 564 1729 475 2655 -79 817 -347 1580 -797
2269 -428 656 -1030 1222 -1704 1604 -629 356 -1289 565 -2009 637 -107 11
-641 21 -740 14z m769 -318 c393 -47 677 -111 1030 -231 1031 -350 1940 -1088
2506 -2036 600 -1003 808 -2219 574 -3359 -231 -1125 -867 -2124 -1794 -2821
-1046 -787 -2408 -1104 -3685 -858 -461 89 -838 217 -1245 423 -477 242 -826
496 -1215 886 -240 239 -406 441 -585 710 -305 458 -512 921 -646 1448 -144
563 -183 1210 -108 1777 172 1301 894 2481 1984 3242 336 235 759 452 1130
579 373 129 731 207 1110 244 61 5 126 12 145 14 90 10 673 -3 799 -18z"/>
<path d="M5730 10914 c-342 -32 -562 -67 -833 -135 -1849 -461 -3245 -2037
-3481 -3929 -38 -309 -43 -613 -15 -955 48 -592 205 -1153 469 -1683 234 -468
510 -853 875 -1217 639 -639 1425 -1070 2296 -1259 357 -77 593 -101 994 -100
331 0 472 11 765 59 823 135 1647 525 2280 1082 878 772 1432 1824 1565 2969
67 582 11 1235 -157 1819 -199 695 -578 1359 -1072 1883 -402 425 -818 734
-1341 993 -309 154 -563 248 -900 334 -396 102 -659 135 -1095 140 -168 1
-325 1 -350 -1z m825 -103 c775 -101 1423 -343 2035 -759 883 -600 1539 -1508
1829 -2533 187 -662 225 -1390 105 -2049 -299 -1652 -1482 -3009 -3083 -3537
-271 -89 -602 -160 -936 -200 -236 -28 -749 -25 -994 5 -561 70 -1005 201
-1486 437 -284 139 -507 275 -725 440 -962 729 -1594 1772 -1779 2940 -56 355
-73 898 -38 1200 128 1076 582 2018 1329 2757 736 728 1656 1172 2688 1297
229 28 246 29 595 25 237 -2 346 -8 460 -23z"/>
<path d="M5737 10779 c-477 -27 -1042 -162 -1485 -355 -564 -245 -1024 -563
-1457 -1006 -688 -703 -1122 -1601 -1245 -2577 -51 -404 -40 -905 31 -1321
191 -1133 808 -2148 1730 -2847 421 -320 934 -578 1439 -726 867 -254 1758
-245 2635 25 784 242 1553 753 2086 1388 346 412 606 854 787 1340 256 686
337 1411 241 2160 -99 781 -401 1513 -884 2149 -140 184 -231 289 -404 461
-347 346 -734 626 -1160 840 -720 360 -1491 516 -2314 469z m3061 -2788 c5
-31 -5 -50 -115 -216 -290 -441 -743 -893 -1283 -1281 -312 -224 -616 -388
-834 -450 l-59 -16 6 -107 c13 -239 182 -735 324 -948 85 -128 218 -243 320
-277 169 -56 395 -29 601 71 73 35 109 61 165 117 40 39 83 91 95 116 l24 45
-77 143 -77 142 -103 0 -104 0 0 -167 0 -168 -50 -3 -51 -3 0 420 0 421 143 0
c236 0 328 -26 383 -109 49 -74 49 -200 1 -273 -13 -18 -43 -46 -69 -63 -26
-16 -47 -33 -47 -36 -1 -3 40 -79 90 -169 50 -89 93 -168 96 -176 4 -11 -7
-14 -54 -14 -57 0 -60 -1 -75 -32 -66 -134 -284 -305 -478 -377 -372 -137
-714 0 -975 389 -129 194 -224 452 -275 754 -19 114 -29 333 -16 355 4 6 23
13 44 16 234 40 844 388 1266 723 412 328 775 703 1031 1067 42 61 85 116 94
123 24 20 55 11 59 -17z m-1605 -145 c14 -13 31 -43 38 -66 12 -39 11 -46 -8
-79 -26 -46 -104 -106 -171 -131 -28 -11 -90 -27 -137 -36 l-85 -17 -61 -124
c-106 -219 -206 -476 -364 -943 -159 -468 -335 -833 -553 -1150 -83 -120 -286
-323 -412 -412 -200 -141 -451 -247 -685 -289 -162 -29 -439 -31 -570 -6 -515
102 -831 368 -911 767 -31 157 -5 378 62 519 60 127 236 280 342 297 62 10 55
-16 -18 -66 -76 -51 -188 -183 -230 -268 -94 -193 -95 -484 -3 -654 97 -178
313 -339 530 -394 142 -36 330 -57 443 -50 125 8 329 63 485 131 426 187 720
448 1021 910 106 163 213 375 399 790 200 446 226 503 298 655 100 210 128
272 124 276 -15 15 -638 -52 -811 -87 -422 -85 -699 -273 -846 -574 -97 -197
-106 -381 -27 -543 56 -116 140 -166 277 -165 98 1 151 17 228 70 68 46 139
152 177 263 25 74 29 102 32 215 1 72 3 132 3 134 0 3 11 -6 24 -18 24 -22 40
-68 51 -147 16 -106 -66 -312 -166 -418 -73 -78 -144 -120 -243 -146 -180 -46
-324 -10 -463 114 -111 100 -165 233 -164 406 0 210 67 366 223 517 187 181
426 295 766 363 164 32 339 51 732 80 163 11 266 23 268 29 6 19 91 131 135
178 60 65 115 91 198 92 35 1 52 -5 72 -23z m1225 -2438 l2 -418 -55 0 -55 0
0 421 0 420 53 -3 52 -3 3 -417z m782 377 l0 -45 -135 0 -135 0 0 -375 0 -375
-50 0 -50 0 0 375 0 375 -135 0 -135 0 0 45 0 45 320 0 320 0 0 -45z m240
-375 l0 -420 -50 0 -50 0 0 420 0 420 50 0 50 0 0 -420z m-2713 -1066 c134
-64 207 -236 188 -444 -15 -176 -81 -289 -195 -338 -169 -73 -350 -3 -427 164
-54 118 -54 340 0 458 29 62 87 130 131 153 90 48 213 50 303 7z m-639 -301
c-3 -292 -5 -333 -22 -370 -21 -48 -73 -98 -125 -121 -51 -22 -175 -21 -233 1
-78 30 -138 114 -138 195 0 20 5 22 49 22 l49 0 11 -44 c12 -47 54 -91 97
-102 47 -12 123 2 150 27 53 50 54 54 54 399 l0 320 56 0 55 0 -3 -327z m1428
292 c44 -22 65 -40 81 -70 33 -58 39 -117 19 -170 -16 -41 -75 -105 -96 -105
-20 0 -9 -18 14 -24 35 -9 93 -79 107 -128 24 -90 -11 -195 -80 -242 -64 -44
-89 -49 -283 -54 l-188 -4 0 417 0 417 183 -4 c179 -4 185 -4 243 -33z"/>
<path d="M7681 5580 l-2 -160 118 0 c98 0 124 3 160 21 110 53 112 220 3 277
-38 19 -60 22 -161 22 l-117 0 -1 -160z"/>
<path d="M7040 7757 c-36 -25 -145 -145 -138 -152 2 -2 28 2 58 9 109 25 184
83 178 135 -4 36 -51 40 -98 8z"/>
<path d="M6507 4275 c-52 -18 -82 -48 -115 -114 -26 -53 -27 -63 -27 -206 0
-147 1 -151 30 -210 38 -77 89 -114 167 -122 98 -10 167 28 216 121 26 49 27
57 27 206 0 142 -2 159 -24 208 -50 111 -160 158 -274 117z"/>
<path d="M7190 4150 l0 -130 110 0 c123 0 164 11 198 55 27 34 29 102 6 146
-24 46 -66 59 -199 59 l-115 0 0 -130z"/>
<path d="M7197 3933 c-4 -3 -7 -73 -7 -155 l0 -148 121 0 c166 0 208 21 230
117 21 95 -29 167 -126 183 -68 11 -208 13 -218 3z"/>
</g>
</svg>
