<?xml version="1.0" standalone="no"?>
<!DOCTYPE svg PUBLIC "-//W3C//DTD SVG 20010904//EN"
 "http://www.w3.org/TR/2001/REC-SVG-20010904/DTD/svg10.dtd">
<svg version="1.0" xmlns="http://www.w3.org/2000/svg"
 width="1200.000000pt" height="1200.000000pt" viewBox="0 0 1200.000000 1200.000000"
 preserveAspectRatio="xMidYMid meet">

<g transform="translate(0.000000,1200.000000) scale(0.100000,-0.100000)"
fill="#000000" stroke="none">
<path d="M5760 11273 c-353 -19 -702 -74 -1031 -163 -1399 -378 -2567 -1343
-3204 -2645 -421 -861 -579 -1796 -469 -2765 99 -872 429 -1703 956 -2412 276
-372 643 -742 1013 -1019 630 -474 1393 -802 2158 -929 353 -58 440 -65 842
-65 403 0 488 7 845 66 1241 205 2396 909 3157 1924 655 873 1007 1912 1006
2970 -1 365 -32 690 -99 1025 -263 1322 -1055 2484 -2194 3222 -711 461 -1545
736 -2387 787 -156 10 -453 12 -593 4z m769 -317 c610 -73 1108 -221 1623
-483 458 -232 838 -510 1213 -887 357 -359 637 -746 864 -1196 466 -920 616
-1997 420 -3010 -221 -1143 -860 -2160 -1806 -2873 -312 -235 -707 -457 -1078
-605 -1212 -483 -2595 -436 -3760 127 -522 253 -904 526 -1321 945 -602 607
-1020 1350 -1224 2178 -80 328 -115 587 -131 983 -12 295 -4 485 32 760 172
1300 894 2481 1984 3242 323 226 751 447 1099 569 381 133 769 219 1141 253
66 6 136 13 155 15 91 10 664 -3 789 -18z"/>
<path d="M5730 10914 c-457 -41 -798 -109 -1185 -239 -875 -292 -1662 -860
-2224 -1604 -490 -649 -802 -1413 -905 -2216 -56 -444 -37 -994 50 -1450 152
-791 510 -1535 1034 -2151 130 -152 401 -418 559 -549 584 -483 1265 -815
1985 -969 305 -66 541 -93 871 -103 846 -24 1699 194 2435 622 691 401 1263
967 1674 1655 657 1099 821 2409 460 3668 -194 678 -583 1358 -1068 1870 -413
435 -847 754 -1376 1010 -306 149 -540 234 -865 317 -399 102 -664 136 -1095
140 -168 1 -325 1 -350 -1z m636 -84 c1392 -111 2625 -820 3421 -1970 622
-897 903 -2023 778 -3115 -100 -871 -459 -1703 -1034 -2395 -189 -228 -517
-539 -766 -727 -574 -432 -1261 -728 -1965 -847 -307 -51 -422 -60 -775 -61
-285 0 -355 3 -514 23 -559 70 -1007 202 -1486 437 -284 139 -507 275 -725
440 -1014 768 -1652 1871 -1804 3122 -23 183 -39 559 -32 725 56 1350 708
2603 1786 3434 391 301 854 548 1335 711 317 107 740 194 1090 222 148 12 543
12 691 1z"/>
<path d="M5731 10779 c-683 -41 -1419 -271 -2011 -627 -541 -326 -1006 -753
-1368 -1259 -417 -581 -701 -1298 -796 -2003 -39 -288 -49 -644 -26 -953 88
-1177 631 -2267 1520 -3051 482 -425 1060 -747 1670 -930 743 -224 1526 -253
2290 -85 773 171 1493 550 2092 1103 504 464 913 1074 1156 1726 256 685 337
1411 241 2160 -98 766 -397 1503 -863 2123 -251 334 -570 654 -902 905 -184
138 -467 314 -683 422 -719 359 -1504 518 -2320 469z m3067 -2794 c2 -24 -14
-57 -73 -150 -321 -502 -822 -998 -1432 -1418 -254 -175 -537 -320 -727 -373
l-59 -16 5 -102 c12 -238 176 -719 323 -947 58 -90 182 -214 251 -251 194
-104 524 -66 752 86 84 56 126 100 178 184 46 76 81 96 70 42 -14 -73 -116
-206 -222 -290 -264 -211 -576 -275 -833 -171 -195 79 -412 306 -531 557 -82
170 -143 370 -180 587 -22 131 -30 341 -13 358 5 5 40 16 77 24 163 34 514
218 891 468 520 344 1039 842 1365 1307 84 120 105 142 134 138 15 -2 22 -11
24 -33z m-1616 -126 c22 -12 57 -82 58 -115 0 -32 -55 -101 -108 -135 -53 -33
-141 -63 -236 -80 l-64 -11 -55 -111 c-110 -223 -206 -469 -365 -937 -164
-481 -302 -778 -507 -1090 -104 -159 -173 -242 -288 -347 -315 -287 -672 -436
-1100 -459 -143 -8 -288 6 -432 42 -428 106 -698 336 -798 682 -18 63 -22 102
-22 212 0 161 19 261 71 370 63 132 261 300 356 300 45 0 34 -25 -33 -72 -133
-93 -250 -267 -285 -425 -25 -114 -16 -314 19 -412 79 -222 308 -413 577 -480
133 -33 321 -54 430 -47 150 9 365 74 566 170 317 152 567 360 787 655 220
294 299 442 610 1136 96 215 218 482 271 594 53 112 95 205 93 208 -6 6 -471
-35 -600 -53 -539 -74 -844 -238 -1027 -550 -74 -126 -109 -245 -109 -364 0
-275 155 -437 384 -402 142 23 239 99 311 247 58 120 76 204 73 330 -3 81 -1
99 11 97 38 -9 63 -86 63 -197 0 -66 -6 -95 -32 -161 -56 -145 -149 -263 -252
-318 -26 -15 -82 -35 -125 -46 -187 -48 -336 -8 -473 128 -110 108 -153 222
-152 397 1 213 70 365 237 525 184 175 414 282 753 350 164 32 332 51 726 79
176 13 271 24 273 31 9 26 126 172 168 209 24 21 61 44 82 49 51 14 119 14
144 1z m288 -2164 l0 -615 -75 0 -75 0 0 615 0 615 75 0 75 0 0 -615z m818
605 c152 -25 260 -101 298 -210 29 -84 26 -229 -6 -295 -30 -61 -102 -134
-158 -159 -23 -11 -42 -22 -42 -25 0 -6 190 -354 259 -474 l32 -57 -88 0 -88
1 -133 250 -134 250 -146 -3 -147 -3 -3 -247 -2 -248 -75 0 -75 0 0 615 0 615
223 0 c122 0 250 -5 285 -10z m1340 -52 l-3 -63 -197 -3 -198 -2 0 -550 0
-550 -80 0 -80 0 0 550 0 550 -194 0 -194 0 -4 65 -3 65 478 0 478 0 -3 -62z
m352 -553 l0 -615 -75 0 -75 0 0 615 0 615 75 0 75 0 0 -615z m-3771 -1434
c164 -51 270 -172 323 -370 29 -110 29 -372 0 -482 -67 -252 -231 -389 -467
-389 -235 0 -404 140 -472 390 -25 93 -25 388 0 480 53 196 164 323 332 376
63 20 213 17 284 -5z m-881 -488 c-4 -556 -2 -542 -89 -637 -66 -72 -143 -107
-255 -114 -240 -15 -397 94 -420 291 l-7 57 76 0 75 0 11 -52 c22 -99 70 -147
169 -168 84 -19 156 1 213 59 74 73 74 71 72 594 l-1 457 79 0 80 0 -3 -487z
m2030 472 c118 -28 188 -83 222 -172 22 -60 27 -173 9 -220 -19 -51 -62 -103
-111 -135 -26 -17 -48 -32 -48 -34 0 -1 20 -12 45 -24 61 -29 129 -107 146
-167 36 -126 3 -269 -82 -348 -98 -92 -171 -107 -499 -103 l-235 3 -3 608 -2
607 247 0 c184 0 264 -4 311 -15z"/>
<path d="M7040 7757 c-37 -26 -145 -145 -138 -152 7 -8 116 23 157 45 50 25
83 67 79 99 -4 36 -51 40 -98 8z"/>
<path d="M7937 6173 c-4 -3 -7 -109 -7 -235 l0 -228 158 0 c190 0 240 12 294
67 54 57 71 99 71 171 -1 113 -55 184 -166 217 -52 15 -337 22 -350 8z"/>
<path d="M5952 4131 c-62 -22 -128 -81 -165 -150 -46 -85 -60 -162 -61 -331 0
-134 3 -165 23 -230 29 -97 60 -148 116 -198 56 -49 119 -72 200 -72 168 0
286 114 321 309 17 98 17 285 0 383 -26 145 -113 262 -219 293 -67 20 -150 18
-215 -4z"/>
<path d="M6968 4135 c-5 -5 -8 -96 -8 -202 l0 -195 173 4 c165 3 174 4 217 30
63 37 95 95 94 173 -1 90 -32 138 -108 170 -42 18 -355 34 -368 20z"/>
<path d="M6972 3612 c-9 -6 -12 -59 -10 -228 l3 -219 165 0 c191 0 236 11 294
75 103 115 58 318 -81 360 -47 14 -353 24 -371 12z"/>
</g>
</svg>
